<svg xmlns="http://www.w3.org/2000/svg" enable-background="new 0 0 512 512" height="512" viewBox="0 0 512 512" width="512"><g id="_x31_9_Statices"><g><path d="m184.164 190.14c12.813 12.023 17.157 25.793 18.547 35.226.432 2.961 1.552 5.671 3.1 8.087-4.207 3.87-6.89 9.368-6.89 15.519 0 3.773 1.073 7.268 2.81 10.338-2.274 2.52-3.699 5.823-3.699 9.477 0 23.674 19.261 42.935 42.943 42.935s42.943-19.261 42.943-42.935c0-3.654-1.425-6.958-3.699-9.477 1.737-3.071 2.81-6.565 2.81-10.338 0-6.142-2.674-11.633-6.869-15.502 1.535-2.387 2.651-5.062 3.095-7.982 1.428-9.357 5.947-23.226 19.345-36.13 16.39-15.79 25.413-37.026 25.413-59.781 0-23.59-10.071-46.133-27.631-61.855s-41.234-23.233-64.84-20.621c-36.859 4.086-70.445 38.804-73.346 75.807-1.982 25.398 7.482 49.9 25.968 67.232zm56.812 106.028c-14.651 0-26.651-11.56-27.358-26.029h54.715c-.706 14.469-12.706 26.029-27.357 26.029zm20.886-52.801c3.091 0 5.613 2.514 5.613 5.605s-2.522 5.613-5.613 5.613h-41.773c-3.091 0-5.613-2.522-5.613-5.613s2.522-5.605 5.613-5.605zm-28.664-82.514h-9.357c-5.165 0-9.365-4.2-9.365-9.357 0-5.165 4.2-9.365 9.365-9.365 5.157 0 9.357 4.2 9.357 9.365zm-59.492-36.73c2.317-29.53 30.145-58.3 59.553-61.559 2.628-.296 5.241-.441 7.838-.441 16.671 0 32.386 5.97 44.91 17.18 14.271 12.775 22.451 31.102 22.451 50.272 0 18.494-7.337 35.75-20.651 48.578-16.535 15.919-22.132 33.251-23.925 44.994-.41 2.658-2.863 4.663-5.719 4.663h-9.41v-51.404h9.357c13.74 0 24.92-11.172 24.92-24.912s-11.18-24.92-24.92-24.92c-6.649 0-12.663 2.657-17.135 6.916-4.471-4.259-10.486-6.916-17.135-6.916-13.74 0-24.92 11.18-24.92 24.92s11.18 24.912 24.92 24.912h9.357v51.404h-9.372c-2.871 0-5.332-2.02-5.727-4.701-1.747-11.886-7.208-29.226-23.302-44.318-15.014-14.079-22.7-34.009-21.09-54.668zm75.047 36.73v-9.357c0-5.165 4.2-9.365 9.357-9.365 5.165 0 9.365 4.2 9.365 9.365 0 5.157-4.2 9.357-9.365 9.357z" fill="#2babe2"/><path d="m248.753 24.065v-10.322c0-4.299-3.479-7.777-7.777-7.777s-7.777 3.479-7.777 7.777v10.322c0 4.299 3.479 7.777 7.777 7.777s7.777-3.478 7.777-7.777z" fill="#2babe2"/><path d="m300.491 42.096 5.157-8.939c2.149-3.722.873-8.476-2.848-10.626-3.714-2.149-8.476-.866-10.626 2.848l-5.157 8.939c-2.149 3.722-.873 8.476 2.848 10.626 3.681 2.126 8.453.904 10.626-2.848z" fill="#2babe2"/><path d="m337.434 64.942-8.939 5.157c-3.722 2.149-4.998 6.904-2.848 10.626 2.17 3.746 6.94 4.977 10.626 2.848l8.939-5.157c3.722-2.149 4.998-6.904 2.848-10.626-2.157-3.721-6.92-5.005-10.626-2.848z" fill="#2babe2"/><path d="m338.748 129.615c0 4.299 3.479 7.777 7.777 7.777h10.322c4.299 0 7.777-3.479 7.777-7.777 0-4.299-3.479-7.777-7.777-7.777h-10.322c-4.298-.001-7.777 3.478-7.777 7.777z" fill="#2babe2"/><path d="m192.094 44.944c3.722-2.149 4.998-6.912 2.848-10.626l-5.165-8.939c-2.157-3.729-6.919-4.998-10.626-2.848-3.722 2.149-4.998 6.912-2.848 10.626l5.165 8.939c2.155 3.732 6.924 4.986 10.626 2.848z" fill="#2babe2"/><path d="m145.68 83.573c3.68 2.126 8.452.904 10.626-2.848 2.149-3.722.873-8.476-2.848-10.626l-8.939-5.157c-3.722-2.157-8.476-.873-10.626 2.848-2.149 3.722-.873 8.476 2.848 10.626z" fill="#2babe2"/><path d="m117.327 129.615c0 4.299 3.479 7.777 7.777 7.777h10.322c4.299 0 7.777-3.479 7.777-7.777 0-4.299-3.479-7.777-7.777-7.777h-10.322c-4.298-.001-7.777 3.478-7.777 7.777z" fill="#2babe2"/><path d="m483.295 490.479h-12.055v-50.32c0-4.295-3.482-7.777-7.777-7.777-4.295 0-7.777 3.482-7.777 7.777v50.32h-34.22v-179.503c0-.855.778-1.633 1.711-1.633h30.799c.933 0 1.711.778 1.711 1.633v69.063c0 4.295 3.482 7.777 7.777 7.777 4.295 0 7.777-3.482 7.777-7.777v-69.063c0-9.493-7.695-17.188-17.188-17.188h-30.877c-9.496 0-17.266 7.77-17.266 17.266v179.425h-27.377v-131.049c0-9.496-7.77-17.266-17.266-17.266h-30.798c-9.496 0-17.266 7.77-17.266 17.266v131.049h-27.454v-58.33c0-9.536-7.73-17.266-17.266-17.266h-30.721c-9.493 0-17.188 7.695-17.188 17.188v58.408h-27.532v-97.451c0-9.493-7.695-17.188-17.188-17.188h-30.799c-9.493 0-17.188 7.695-17.188 17.188v11.277c0 4.295 3.482 7.777 7.777 7.777 4.295 0 7.777-3.482 7.777-7.777v-11.277c0-.933.778-1.633 1.633-1.633h30.721c.941 0 1.711.77 1.711 1.711v97.373h-34.065v-26.132c0-4.295-3.482-7.777-7.777-7.777-4.295 0-7.777 3.482-7.777 7.777v26.132h-27.532v-33.987c0-9.493-7.695-17.188-17.188-17.188h-30.798c-9.536 0-17.266 7.73-17.266 17.266v33.909h-6.377c-4.278 0-7.777 3.422-7.777 7.777 0 4.277 3.499 7.777 7.777 7.777h454.589c4.278 0 7.777-3.5 7.777-7.777 0-4.355-3.499-7.777-7.777-7.777zm-398.515 0h-34.143v-33.987c0-.933.778-1.633 1.711-1.633h30.799c.933 0 1.633.7 1.633 1.633zm185.414 0h-34.065v-58.408c0-.933.778-1.633 1.633-1.633h30.721c.933 0 1.711.7 1.711 1.633zm92.784 0h-34.221v-131.049c0-.933.778-1.711 1.711-1.711h30.798c.933 0 1.711.778 1.711 1.711v131.049z" fill="#2babe2"/><path d="m69.546 359.132c-16.497 0-29.917 13.421-29.917 29.925 0 16.322 13.07 29.925 29.917 29.925 16.292 0 29.925-13.24 29.925-29.925 0-4.003-.819-7.811-2.251-11.303l43.72-32.577c5.35 4.613 12.222 7.257 19.534 7.257 9.557 0 18.393-4.664 23.912-12.031l39.426 17.918c-.265 1.595-.542 3.191-.542 4.845 0 16.497 13.421 29.917 29.925 29.917s29.925-13.421 29.925-29.917c0-4.104-.947-8.122-2.558-11.855l41.019-34.212c4.952 3.368 10.776 5.311 16.854 5.311 16.504 0 29.925-13.421 29.925-29.925 0-1.498-.174-2.967-.392-4.426l39.39-28.526c5.266 4.121 11.736 6.468 18.497 6.468 21.026 0 35.286-21.148 28.056-40.307-4.337-11.689-15.616-19.542-28.056-19.542-16.504 0-29.925 13.421-29.925 29.925 0 3.78.765 7.485 2.141 10.978l-36.571 26.485c-5.596-6.778-14.003-10.979-23.065-10.979-16.504 0-29.925 13.421-29.925 29.925 0 4.446 1.099 8.772 2.985 12.775l-40.632 33.888c-5.088-3.751-11.193-5.908-17.669-5.908-9.176 0-17.616 4.185-23.063 10.868l-40.048-18.201c.129-1.127.314-2.24.314-3.399 0-16.504-13.421-29.925-29.925-29.925s-29.925 13.421-29.925 29.925c0 3.312.62 6.583 1.71 9.738l-44.549 33.194c-5.049-3.897-11.3-6.309-18.162-6.309zm0 44.295c-8.245 0-14.362-6.638-14.362-14.37 0-7.922 6.441-14.37 14.362-14.37s14.37 6.448 14.37 14.37c0 7.895-6.461 14.37-14.37 14.37zm356.31-181.721c6.069 0 11.355 3.691 13.489 9.433 3.414 9.104-3.131 19.307-13.489 19.307-8.011 0-14.37-6.355-14.37-14.37.001-7.922 6.449-14.37 14.37-14.37zm-87.419 56.409c8.204 0 14.37 6.689 14.37 14.37 0 8.058-6.312 14.37-14.37 14.37-7.997 0-14.37-6.342-14.37-14.37 0-7.922 6.448-14.37 14.37-14.37zm-85.241 70.68c8.162 0 14.37 6.607 14.37 14.37 0 7.922-6.448 14.362-14.37 14.362s-14.37-6.441-14.37-14.362c0-7.509 6.041-14.37 14.37-14.37zm-92.721-40.657c7.922 0 14.37 6.448 14.37 14.37 0 7.86-6.445 14.37-14.37 14.37-8.169 0-14.37-6.559-14.37-14.37 0-7.922 6.448-14.37 14.37-14.37z" fill="#2babe2"/></g></g></svg>