<?xml version="1.0" encoding="utf-8"?>
<!-- Generator: Adobe Illustrator 27.9.0, SVG Export Plug-In . SVG Version: 6.00 Build 0)  -->
<svg version="1.1" id="Layer_1" xmlns="http://www.w3.org/2000/svg" xmlns:xlink="http://www.w3.org/1999/xlink" x="0px" y="0px"
	 viewBox="0 0 1920 1080" style="enable-background:new 0 0 1920 1080;" xml:space="preserve">
<style type="text/css">
	.st0{fill:#29AAE1;}
	.st1{fill:#424143;}
	.st2{fill:#2BABE2;}
</style>
<g>
	<path class="st0" d="M1214.85,407.47l-451.1,245.4l397.15-271.97c56.72-38.84,128.74-48.98,193.44-25.74
		c0.77,0.27,1.53,0.55,2.3,0.84c40.29,14.89,73.68,44.61,93.14,82.91c4.87,9.57,8.97,19.15,12.38,28.68h-57.96
		c-1.67-3.38-3.46-6.76-5.39-10.13c-12.74-22.29-32.61-39.75-56.35-49.52c-44.94-18.5-89.01-18.31-127.59-0.44L1214.85,407.47z"/>
	<g>
		<path class="st1" d="M1219.22,580.33v-78.55h14.08v78.55H1219.22z"/>
		<path class="st1" d="M1307.49,537.13c-3.71-3.27-7.86-6.65-10.15-8.83c0,2.95,0.12,7.74,0.12,10.91v41.12h-13.96v-79.75h0.99
			l50.18,44.29l10.04,8.95c-0.12-3.05-0.12-7.09-0.12-10.91v-41.13h13.96v79.75h-0.88L1307.49,537.13z"/>
		<path class="st1" d="M1422.74,512.92v22.91h34.91v11.02h-34.91v33.49h-14.08v-78.55h55.43v11.13H1422.74z"/>
		<path class="st1" d="M1506.66,580.33v-78.55h14.08v78.55H1506.66z"/>
		<path class="st1" d="M1594.93,537.13c-3.71-3.27-7.86-6.65-10.15-8.83c0,2.95,0.12,7.74,0.12,10.91v41.12h-13.96v-79.75h0.99
			l50.18,44.29l10.04,8.95c-0.12-3.05-0.12-7.09-0.12-10.91v-41.13h13.96v79.75h-0.88L1594.93,537.13z"/>
		<path class="st1" d="M1696.1,580.33v-78.55h14.08v78.55H1696.1z"/>
		<path class="st1" d="M1792.01,512.92v67.42h-14.08v-67.42h-27.93v-11.13h69.93v11.13H1792.01z"/>
		<path class="st1" d="M1859.79,580.33v-78.55h58.25v11.13h-44.17v22.25h37.51v10.8h-37.51v23.24H1920v11.12H1859.79z"/>
	</g>
	<g>
		<path class="st1" d="M43.06,726.82H18.4l-5.41,11.97H9.65l19.56-42.54h3.09l19.58,42.54h-3.35L43.06,726.82z M41.91,724.21
			l-11.18-24.55L19.6,724.21H41.91z"/>
		<path class="st1" d="M96.03,696.25h3.11v42.54h-3.11V696.25z"/>
		<path class="st1" d="M198.41,717.52c0-12.39,9.41-21.57,22.05-21.57c6.03,0,11.44,1.94,15.13,5.89l-1.94,2
			c-3.64-3.58-8.07-5.04-13.07-5.04c-10.87,0-19.08,8.01-19.08,18.71c0,10.7,8.21,18.73,19.08,18.73c5,0,9.43-1.53,13.07-5.11
			l1.94,2.01c-3.7,3.95-9.1,5.95-15.13,5.95C207.82,739.09,198.41,729.92,198.41,717.52z"/>
		<path class="st1" d="M277.46,717.52c0-12.33,9.41-21.57,22.11-21.57c12.64,0,22.13,9.18,22.13,21.57
			c0,12.41-9.49,21.58-22.13,21.58C286.87,739.09,277.46,729.86,277.46,717.52z M318.53,717.52c0-10.75-8.13-18.71-18.96-18.71
			c-10.87,0-19.02,7.95-19.02,18.71c0,10.76,8.15,18.73,19.02,18.73C310.41,736.24,318.53,728.28,318.53,717.52z"/>
		<path class="st1" d="M403.54,696.25v42.54h-2.57L372,701.84v36.95h-3.11v-42.54h2.63l28.92,36.95v-36.95H403.54z"/>
		<path class="st1" d="M450.49,733.33l1.4-2.31c2.92,3.03,8.32,5.35,14.04,5.35c8.52,0,12.27-3.7,12.27-8.32
			c0-12.77-26.55-5.11-26.55-20.79c0-6.01,4.61-11.3,15.07-11.3c4.67,0,9.53,1.46,12.82,3.83l-1.15,2.49
			c-3.52-2.43-7.84-3.59-11.67-3.59c-8.27,0-11.98,3.83-11.98,8.51c0,12.76,26.57,5.23,26.57,20.66c0,6.02-4.8,11.24-15.32,11.24
			C459.67,739.09,453.6,736.73,450.49,733.33z"/>
		<path class="st1" d="M527.89,720.75v-24.49H531v24.37c0,10.64,5.1,15.63,13.98,15.63c8.87,0,13.91-4.99,13.91-15.63v-24.37H562
			v24.49c0,12.15-6.52,18.35-17.08,18.35C534.35,739.09,527.89,732.9,527.89,720.75z"/>
		<path class="st1" d="M612.88,696.25h3.11v39.74h24.48v2.8h-27.6V696.25z"/>
		<path class="st1" d="M689.07,699.04h-15.32v-2.79h33.74v2.79h-15.32v39.75h-3.09V699.04z"/>
		<path class="st1" d="M775.77,726.82h-24.66l-5.41,11.97h-3.35l19.56-42.54h3.09l19.58,42.54h-3.34L775.77,726.82z M774.62,724.21
			l-11.18-24.55l-11.12,24.55H774.62z"/>
		<path class="st1" d="M863.4,696.25v42.54h-2.57l-28.98-36.95v36.95h-3.11v-42.54h2.63l28.92,36.95v-36.95H863.4z"/>
		<path class="st1" d="M922.82,699.04h-15.31v-2.79h33.72v2.79h-15.32v39.75h-3.09V699.04z"/>
		<path class="st1" d="M980.21,733.33l1.4-2.31c2.92,3.03,8.32,5.35,14.04,5.35c8.52,0,12.27-3.7,12.27-8.32
			c0-12.77-26.55-5.11-26.55-20.79c0-6.01,4.61-11.3,15.07-11.3c4.67,0,9.53,1.46,12.82,3.83l-1.15,2.49
			c-3.52-2.43-7.84-3.59-11.67-3.59c-8.27,0-11.98,3.83-11.98,8.51c0,12.76,26.57,5.23,26.57,20.66c0,6.02-4.8,11.24-15.32,11.24
			C989.39,739.09,983.32,736.73,980.21,733.33z"/>
	</g>
	<g>
		<path class="st1" d="M43.62,500.6h1.09l43.64,79.75H73.51l-8.95-15.93H23.55l-8.73,15.93H0L43.62,500.6z M60.09,554.49
			c-5.11-9.7-11.01-21.38-15.93-31.52c-4.78,10.14-10.79,21.82-16.02,31.52H60.09z"/>
		<path class="st1" d="M150.68,537.14c-3.71-3.27-7.86-6.65-10.15-8.83c0,2.95,0.12,7.74,0.12,10.91v41.12h-13.96V500.6h0.99
			l50.18,44.29l10.04,8.95c-0.12-3.05-0.12-7.09-0.12-10.91V501.8h13.96v79.74h-0.88L150.68,537.14z"/>
		<path class="st1" d="M245.63,577.18v-12.77c8.19,3.38,18.34,5.56,26.84,5.56c12.12,0,19.19-3.49,19.19-9.49
			c0-6.44-4.9-9.7-20.28-14.18c-18.22-5.24-26.39-11.45-26.39-24c0-13.64,12-21.93,31.86-21.93c8.28,0,17.11,1.53,23.55,4.04v12.32
			c-6.44-2.83-14.94-4.69-23.01-4.69c-11.57,0-18.67,3.49-18.67,9.82c0,5.78,4.8,9.6,20.09,14.18
			c17.99,5.35,26.72,11.35,26.72,23.68c0,13.96-12,22.03-32.4,22.03C263.73,581.76,253.15,580.01,245.63,577.18z"/>
		<path class="st1" d="M427.62,581.54h-1.3l-17.23-36.32c-2.74-5.68-5.56-12.12-7.53-16.37c-1.87,3.93-4.05,9.16-6.44,14.4
			l-4.47,9.16c-4.71,9.7-9.06,19.53-13.87,29.12h-1.3l-38.29-79.74h15.27l14.2,30.86c3.93,8.63,7.53,17.03,9.8,22.47
			c2.96-7.2,8.63-19.19,13.87-30l10.79-22.47h0.88l10.79,22.47c5.13,10.8,10.91,22.8,13.96,30c2.2-5.45,5.8-13.85,9.72-22.47
			l14.18-30.86h15.27L427.62,581.54z"/>
		<path class="st1" d="M505.47,580.34V501.8h58.25v11.12h-44.17v22.25h37.51v10.8h-37.51v23.24h46.13v11.12H505.47z"/>
		<path class="st1" d="M640.01,501.8c20.83,0,33.82,8.94,33.82,24.76c0,11.02-7.43,19.09-19.53,22.26l21.16,31.52h-15.17
			l-19.1-29.45h-18.32v29.45h-13.96V501.8H640.01z M622.87,512.93v27.38h17.78c11.69,0,18.98-4.91,18.98-13.75
			c0-8.84-7.53-13.63-19.62-13.63H622.87z"/>
		<path class="st1" d="M713.46,577.18v-12.77c8.19,3.38,18.34,5.56,26.84,5.56c12.12,0,19.19-3.49,19.19-9.49
			c0-6.44-4.9-9.7-20.28-14.18c-18.22-5.24-26.39-11.45-26.39-24c0-13.64,12-21.93,31.86-21.93c8.28,0,17.11,1.53,23.55,4.04v12.32
			c-6.44-2.83-14.94-4.69-23.01-4.69c-11.57,0-18.67,3.49-18.67,9.82c0,5.78,4.8,9.6,20.09,14.18
			c17.99,5.35,26.72,11.35,26.72,23.68c0,13.96-12,22.03-32.4,22.03C731.57,581.76,720.99,580.01,713.46,577.18z"/>
	</g>
	<path class="st2" d="M786.48,424.13l14.85,11.01l121.62,90.22l45.37-32.53L832.97,392.42l-14.81-10.99l0,0
		c-57.72-43.91-133.99-53.54-208.49-21.98c-38.36,16.25-69.5,46.19-87.69,83.67c-3.96,8.17-7.35,16.32-10.26,24.46h59.55
		c25.16-43.87,72.44-73.51,126.53-73.51c32.26,0,62.82,10.32,88.38,29.83L786.48,424.13z"/>
	<path class="st2" d="M1276.04,685.63c-28.78,0-56.58-8.38-80.44-24.2l-176.06-130.61l-51.22,28.2l196.26,145.6l1.07,0.76
		c32.72,21.86,70.89,33.41,110.38,33.41c84.22,0,156.37-52.6,185.35-126.68h-58.83C1377.4,655.99,1330.13,685.63,1276.04,685.63z"/>
</g>
</svg>
